<svg xmlns="http://www.w3.org/2000/svg" width="2162.699" height="122" viewBox="0 0 2162.699 122"><path fill="#FFD85F" d="M33.77 79.94c-2.202.296-4.243 1.087-6.19 2.347-1.95 1.283-2.994 2.746-3.165 4.363-.107 1.02.302 2.2 1.2 3.472.896 1.295 2.36 2.27 4.316 2.937.664.122.96.367.924.69-.012.116-.272.22-.884.286-3.167-.68-5.704-1.93-7.58-3.712-1.874-1.805-2.73-3.795-2.568-6.018.357-2.377 1.688-4.55 3.993-6.488 2.342-1.963 5.223-3.297 8.642-4.002l-1.58-8.32c-5.765 2.715-10.516 5.59-14.293 8.673-3.774 3.06-5.913 6.47-6.452 10.232-.107 1.69.25 3.356 1.077 4.976.823 1.642 2.16 3.142 4.003 4.55 3.726 2.795 8.79 4.396 15.114 4.818 2.17.006 4.5-.145 7.022-.45l-3.58-18.355zm2.574-.116l3.65 18.033c5.605-1.188 8.66-4.188 9.164-8.95-.15-1.61-.708-3.075-1.778-4.4-1.032-1.35-2.483-2.44-4.39-3.267-1.904-.83-4.096-1.3-6.646-1.416zm-4.725-24.38c1.217-.41 2.648-1.157 4.22-2.225 1.568-1.046 3.124-2.3 4.625-3.72 1.54-1.44 2.798-2.917 3.776-4.43.977-1.49 1.52-2.93 1.66-4.27.062-.58.052-1.16-.07-1.677-.055-.84-.376-1.504-1.003-1.974-.63-.448-1.455-.717-2.517-.765-2.125-.096-4.128.673-6.008 2.308-1.466 1.42-2.75 3.128-3.738 5.083-1.026 1.976-1.697 3.944-1.98 5.952-.064 2.298.305 4.197 1.035 5.717zm-2.374 1.242c-1.2-3.818-1.682-7.674-1.45-11.566.3-2.497.935-4.815 1.908-6.956.937-2.142 2.162-3.97 3.678-5.526 1.48-1.56 3.133-2.717 4.92-3.473 1.602-.67 2.74-1.015 3.343-.988.46.02.838.154 1.17.378.333.224.756.592 1.274 1.08 3.802 4.098 5.43 8.912 4.85 14.416-.276 2.615-1.076 5.135-2.406 7.63-1.293 2.476-3.07 4.812-5.324 6.964-2.293 2.174-4.91 4.03-7.885 5.592l1.908 9.242c1.57-.045 2.643-.09 3.245-.063 2.692.12 5.06.6 7.215 1.44 2.153.842 3.96 1.922 5.385 3.265 1.427 1.32 2.48 2.808 3.16 4.465.643 1.655.925 3.363.74 5.12-.288 2.73-1.65 5.18-4.08 7.322-2.434 2.145-5.9 3.638-10.44 4.502.165 1.145.488 2.81 1.01 4.946.483 2.16.836 3.87 1.06 5.138.222 1.265.236 2.474.112 3.653-.193 1.825-1.036 3.416-2.533 4.787-1.532 1.37-3.49 2.397-5.912 3.078-2.385.686-4.976.963-7.74.838-3.895-.18-7.22-1.048-9.975-2.59-2.753-1.564-4.11-3.556-3.992-6.014.22-1.08.717-2.08 1.528-3.02.81-.94 1.85-1.684 3.153-2.23 1.27-.57 2.755-.828 4.427-.822 1.38.063 2.665.376 3.853.918 1.15.563 2.07 1.278 2.725 2.168.618.887.908 1.854.8 2.87-.144 1.365-.974 2.49-2.49 3.374-1.517.885-3.374 1.288-5.535 1.19l-.814-.038c1.235 1.45 3.426 2.27 6.578 2.412 1.594.072 3.248-.086 4.92-.428 1.71-.365 3.154-.882 4.4-1.568 1.247-.688 2.11-1.438 2.515-2.256.702-.922 1.124-2.23 1.296-3.87.117-1.107.057-2.228-.145-3.353-.203-1.1-.545-2.578-1.028-4.415-.485-1.81-.834-3.222-1.018-4.182-2.16.25-4.376.337-6.68.23-3.86-.173-7.454-.848-10.78-2.044-3.325-1.193-6.184-2.766-8.61-4.73-2.39-1.97-4.19-4.143-5.393-6.565-1.17-2.397-1.655-4.885-1.422-7.43.39-2.355 1.302-4.59 2.8-6.66 1.503-2.092 3.346-4.054 5.565-5.856 2.218-1.806 4.49-3.444 6.815-4.896 2.36-1.424 5.435-3.26 9.298-5.478z"/><path fill="none" stroke="#FFD85F" d="M0 75.206h2155.46M0 89.163l2155.46-.085M0 82.143h2155.46M0 68.27h2155.46M0 61.333h2155.46"/><path fill="#FFD85F" stroke="#FFD85F" d="M2153.93 61.102h10.3V89.31h-10.3z"/><path fill="none" stroke="#FFD85F" stroke-linecap="round" d="M313.5 61.5v27.914M1080 61.25v27.914M1433.22 61.633v27.914M1796.5 61.633v27.914M686 61.5v27.914"/></svg>