<svg xmlns="http://www.w3.org/2000/svg" width="2162.699" height="122" viewBox="0 0 2162.699 122"><path fill="#FFF" d="M33.77 66.352c-2.202.39-4.243 1.437-6.19 3.104-1.95 1.698-2.994 3.634-3.165 5.773-.106 1.347.302 2.91 1.2 4.593.896 1.713 2.36 3 4.316 3.885.664.163.96.487.924.916-.013.152-.272.29-.884.378-3.167-.898-5.704-2.555-7.58-4.912-1.874-2.388-2.73-5.02-2.568-7.962.357-3.145 1.688-6.02 3.993-8.584 2.342-2.598 5.223-4.363 8.642-5.295l-1.58-11.01c-5.765 3.592-10.516 7.396-14.293 11.475-3.773 4.048-5.913 8.563-6.452 13.54-.106 2.235.25 4.44 1.077 6.583.823 2.172 2.16 4.157 4.003 6.02 3.727 3.698 8.79 5.817 15.114 6.376 2.17.008 4.5-.19 7.022-.595L33.77 66.35zm2.574-.156l3.65 23.86c5.604-1.572 8.66-5.542 9.163-11.84-.15-2.132-.708-4.07-1.778-5.826-1.032-1.783-2.483-3.225-4.39-4.32-1.904-1.098-4.096-1.72-6.646-1.874zM31.62 33.94c1.217-.543 2.648-1.533 4.22-2.946 1.568-1.382 3.124-3.043 4.625-4.92 1.54-1.905 2.8-3.86 3.776-5.863.977-1.967 1.52-3.873 1.66-5.648.062-.765.052-1.535-.07-2.217-.055-1.11-.376-1.99-1.003-2.612-.63-.59-1.455-.947-2.517-1.01-2.125-.128-4.128.89-6.008 3.053-1.467 1.88-2.75 4.14-3.738 6.726-1.026 2.614-1.697 5.218-1.98 7.875-.064 3.04.305 5.552 1.035 7.562zm-2.374 1.642c-1.2-5.052-1.682-10.153-1.45-15.303.3-3.305.936-6.372 1.908-9.205.938-2.834 2.162-5.252 3.678-7.312C34.862 1.7 36.516.168 38.304-.832c1.6-.888 2.74-1.343 3.342-1.308.46.028.838.204 1.17.5.333.296.756.783 1.273 1.43 3.803 5.42 5.43 11.79 4.85 19.073-.275 3.46-1.075 6.793-2.405 10.096-1.293 3.274-3.07 6.365-5.324 9.212-2.292 2.876-4.908 5.332-7.884 7.4L35.233 57.8c1.57-.06 2.643-.12 3.245-.084 2.69.16 5.06.795 7.215 1.906 2.153 1.114 3.96 2.543 5.385 4.32 1.427 1.745 2.48 3.714 3.16 5.907.643 2.188.925 4.448.74 6.774-.288 3.61-1.65 6.85-4.08 9.688-2.435 2.837-5.9 4.813-10.44 5.956.165 1.516.488 3.718 1.01 6.546.483 2.856.837 5.122 1.06 6.798.223 1.673.237 3.272.113 4.834-.192 2.413-1.035 4.52-2.532 6.334-1.532 1.813-3.49 3.17-5.912 4.07-2.385.91-4.976 1.276-7.74 1.11-3.895-.237-7.22-1.388-9.975-3.428-2.752-2.068-4.108-4.704-3.99-7.957.22-1.43.716-2.753 1.527-3.996.81-1.243 1.85-2.23 3.152-2.95 1.27-.754 2.755-1.097 4.428-1.09 1.38.085 2.665.5 3.853 1.216 1.15.745 2.072 1.69 2.726 2.868.618 1.175.908 2.454.8 3.798-.144 1.807-.974 3.294-2.49 4.464-1.517 1.17-3.373 1.705-5.534 1.573l-.813-.05c1.233 1.92 3.425 3.003 6.576 3.19 1.595.096 3.248-.113 4.92-.565 1.712-.483 3.154-1.167 4.4-2.075 1.247-.91 2.11-1.902 2.515-2.984.704-1.22 1.126-2.95 1.3-5.12.115-1.465.056-2.948-.147-4.437-.204-1.457-.546-3.412-1.03-5.843-.483-2.396-.833-4.263-1.017-5.533-2.16.332-4.376.446-6.68.307-3.86-.23-7.454-1.123-10.78-2.706-3.325-1.578-6.185-3.66-8.61-6.26-2.39-2.605-4.188-5.48-5.393-8.685-1.17-3.174-1.656-6.464-1.423-9.833.39-3.114 1.302-6.07 2.8-8.81 1.503-2.77 3.346-5.365 5.564-7.75 2.22-2.39 4.49-4.557 6.815-6.48 2.357-1.88 5.433-4.31 9.296-7.245z"/><path fill="none" stroke="#FFF" stroke-width="3" d="M0 66.954l2155.462-.003M0 99.976l2155.462-.2M0 83.364h2155.462M0 50.542h2155.462M0 34.13h2155.462"/><path fill="#FFF" stroke="#FFF" d="M2153.93 33.583h10.3v66.742h-10.3z"/><path fill="none" stroke="#FFF" stroke-linecap="round" d="M313.5 34.522v66.047M1080 33.93v66.05M1433.22 34.838v66.045M1796.5 34.838v66.045M686 34.522v66.047"/></svg>