<svg xmlns="http://www.w3.org/2000/svg" width="950" height="620" viewBox="0 0 950 620"><g fill="none" stroke="#ffd85f" stroke-width="2" stroke-miterlimit="10"><path d="M458.25 212c.154.065.307.132.458.2"/><path stroke-dasharray="0.9994,0.9994" d="M459.616 212.62c3.958 1.923 7.086 4.656 7.384 9.324.318 4.978-1.98 7.787-6.36 9.493-9.342 3.638-19.392 1.33-29.365.868-24.025-1.112-47.193 1.958-68.158 11.744-5.365 2.503-10.948 4.43-16.56 7.095-3.134 1.487-6.13 3.44-9.55 4.6-3.373 1.14-6.78 2.167-10.043 3.512-6.693 2.758-13.458 4.574-20.714 5.493-6.247.792-14.772 1.602-21.03.407-.88-.167-1.486-.837-2.79-.906-1.282-.067-2.666.296-3.93.507-2.502.417-5.04.796-7.506 1.242-3.872.7-8.076.207-11.938.994-5.27 1.075-10.907 2.907-15.466 5.72"/><path d="M243.17 272.978c-.142.09-.28.18-.42.272"/></g></svg>