<?xml version="1.0" encoding="utf-8"?>
<!-- Generator: Adobe Illustrator 15.0.2, SVG Export Plug-In . SVG Version: 6.00 Build 0)  -->
<!DOCTYPE svg PUBLIC "-//W3C//DTD SVG 1.1//EN" "http://www.w3.org/Graphics/SVG/1.1/DTD/svg11.dtd">
<svg version="1.1" id="Layer_1" xmlns="http://www.w3.org/2000/svg" xmlns:xlink="http://www.w3.org/1999/xlink" x="0px" y="0px"
	 width="512px" height="380.457px" viewBox="0 0 512 380.457" enable-background="new 0 0 512 380.457" xml:space="preserve">
<g>
	<path fill="#FFD85F" d="M250.203,3.147L7.017,177.134c-4.405,3.144-7.003,8.233-7.017,13.643c0,0.039,0,0.039,0,0.039
		c0.013,5.438,2.645,10.519,7.072,13.675l243.186,172.869c5.123,3.639,11.859,4.107,17.441,1.219
		c5.575-2.843,9.09-8.621,9.09-14.934v-81.351l218.419,0.007c9.279,0,16.792-7.513,16.792-16.806l-0.007-150.518
		c0.007-9.275-7.506-16.795-16.798-16.801H276.789V16.803c0-6.276-3.534-12.038-9.123-14.937
		C262.084-1.026,255.332-0.524,250.203,3.147z"/>
</g>
</svg>
