<?xml version="1.0" encoding="utf-8"?>
<!-- Generator: Adobe Illustrator 16.0.0, SVG Export Plug-In . SVG Version: 6.00 Build 0)  -->
<!DOCTYPE svg PUBLIC "-//W3C//DTD SVG 1.1//EN" "http://www.w3.org/Graphics/SVG/1.1/DTD/svg11.dtd">
<svg version="1.1" id="Capa_1" xmlns="http://www.w3.org/2000/svg" xmlns:xlink="http://www.w3.org/1999/xlink" x="0px" y="0px"
	 width="512px" height="512px" viewBox="0 0 512 512" enable-background="new 0 0 512 512" xml:space="preserve">
<path fill="#FFD85F" d="M221,122.002c91.739,0,166,74.2,166,165.998c0,91.739-74.245,165.998-166,166
	c-91.738,0-166-74.242-166-165.998C55,196.3,129.2,122,221,122 M221,82.002C107.229,82,15,174.2,15,288s92.2,206,206,205.998
	c113.77,0,206-92.229,206-205.998C427,174.2,334.8,82,221,82.002L221,82.002z M152.882,360.682
	c-22.253,8.708-40.598-1.278-36.917-25.08c3.681-23.808,24.797-74.773,27.81-84.412c3.01-9.638-2.763-12.28-8.95-8.358
	c-3.569,2.293-8.873,6.889-13.426,11.355c-1.263-2.832-3.038-6.068-4.372-9.166c7.43-8.292,19.85-19.411,34.553-23.441
	c17.567-4.829,46.934,2.899,34.314,40.29c-9.012,26.655-15.385,45.05-19.401,58.776c-4.014,13.705,0.789,16.605,7.811,11.237
	c5.489-4.175,11.337-9.854,15.623-14.256c1.983,3.602,2.603,4.745,4.574,8.873c-7.47,8.432-26.919,28.375-41.591,34.182H152.882z
	 M198.989,195.792c-10.093,9.568-25.053,9.361-33.423-0.468c-8.366-9.823-6.97-25.544,3.12-35.115
	c10.092-9.567,25.055-9.36,33.445,0.439c8.343,9.817,6.941,25.543-3.154,35.144H198.989z"/>
<path fill="#43AEDD" stroke="#383838" stroke-width="5" stroke-miterlimit="10" d="M253.489,209.682
	c-10.409-5.631-12.808-16.571-5.354-24.432c7.452-7.865,21.932-9.674,32.341-4.046c10.414,5.629,12.811,16.568,5.358,24.434
	c-0.052,0.049-0.098,0.101-0.149,0.153c-7.564-7.802-5.323-18.761,5.006-24.475c10.328-5.715,24.833-4.023,32.4,3.779
	c7.564,7.803,5.323,18.761-5.005,24.475c-0.068,0.039-0.137,0.076-0.202,0.112v14.204l27.045-2.725v19.067l-27.045-2.723v14.786
	h-27.047v1.167l35.287,30.547c2.114,1.44,2.281,3.9,0.376,5.496s-5.164,1.723-7.275,0.285c-0.314-0.215-0.591-0.455-0.827-0.723
	l-27.561-23.932v30.742c0,2.149-2.306,3.892-5.152,3.892c-2.844,0-5.151-1.742-5.151-3.892v-30.742l-27.559,23.932
	c-1.587,1.785-4.789,2.262-7.151,1.063s-2.991-3.615-1.405-5.4c0.237-0.266,0.514-0.507,0.828-0.721l35.287-30.547v-1.167h-27.045
	V209.682z"/>
<text transform="matrix(1.9433 0 0 1 223.9993 416.1855)" fill="#CE8329" stroke="#353535" stroke-width="6" stroke-miterlimit="10" font-family="'TimesNewRomanPSMT'" font-size="156.0309">t</text>
<text transform="matrix(2.1106 0 0 1 357.4993 133.6016)" fill="#FFD85F" font-family="'ArialMT'" font-size="169.2208">-</text>
</svg>
