<svg version="1.2" baseProfile="tiny" id="svg2" xmlns:svg="http://www.w3.org/2000/svg"
 xmlns="http://www.w3.org/2000/svg" xmlns:xlink="http://www.w3.org/1999/xlink" x="0px" y="0px" width="950px" height="620px"
 viewBox="0 0 950 620" xml:space="preserve">
<g class="mapSvgClass">
<path fill='rgba(83, 78, 80, 0.46)' stroke='#3a383a' stroke-width='1' id="cuba" d="M220.85,266.92v1.27l5.32,0.1l2.51-1.46l0.39,1.07l5.22,1.27l4.64,4.19l-1.06,1.46l0.19,1.66l3.87,0.97l3.87-1.75l1.74-1.75l-2.51-1.27l-12.95-7.6l-4.54-0.49L220.85,266.92L220.85,266.92z"/>
<path fill='rgba(83, 78, 80, 0.46)' stroke='#3a383a' stroke-width='1' id="usa" d="M148.76,158.34l-1,4.02l-3.49-2.26h-1.74l-1,4.27l-12.21,27.36l3.24,23.84l3.99,2.01l0.75,6.53h8.22l7.97,6.02l15.69,1.51l1.74,8.03l2.49,1.76l3.49-3.51l2.74,1.25l2.49,11.54l4.23,2.76l3.49-6.53l10.71-7.78l6.97,3.26l5.98,0.5l0.25-3.76l12.45,0.25l2.49,2.76l0.5,6.27l-1.49,3.51l1.74,6.02h3.74l3.74-5.77l-1.49-2.76l-1.49-6.02l2.24-6.78l10.21-8.78l7.72-2.26l-1-7.28l10.71-11.55l10.71-1.76L272.8,199l10.46-6.02v-8.03l-1-0.5l-3.74,1.25l-0.5,4.92l-12.43,0.15l-9.74,6.47l-15.29,5l-2.44-2.99l6.94-10.5l-3.43-3.27l-2.33-4.44l-4.83-3.88l-5.25-0.44l-9.92-6.77L148.76,158.34L148.76,158.34z"/>
<path fill='rgba(83, 78, 80, 0.46)' stroke='#3a383a' stroke-width='1' id="spain" d="M448.36,205h-12.74l-2.57-1.16l-1.24,0.09l-1.5,3.12l0.53,3.21l4.87,0.45l0.62,2.05l-2.12,11.95l0.09,2.14l3.45,1.87l3.98,0.27l7.96-1.96l3.89-4.9l0.09-4.99l6.9-6.24l0.35-2.76l-6.28-0.09L448.36,205L448.36,205z"/>
<path fill='rgba(83, 78, 80, 0.46)' stroke='#3a383a' stroke-width='1' id="portugal" d="M430.93,211.24l-0.62,8.65l-1.77,1.6l0.18,0.98l1.24,2.05l-0.8,2.5l1.33,0.45l3.1-0.36l-0.18-2.5l2.03-11.59l-0.44-1.6L430.93,211.24L430.93,211.24z"/>
<path fill='rgba(83, 78, 80, 0.46)' stroke='#3a383a' stroke-width='1' id="majorca" d="M461.1,217.21l-1.59,0.54l0.35,1.43h2.3l0.97-1.07L461.1,217.21L461.1,217.21z"/>
</g>
</svg>
