<?xml version="1.0" encoding="utf-8"?>
<!-- Generator: Adobe Illustrator 16.0.0, SVG Export Plug-In . SVG Version: 6.00 Build 0)  -->
<!DOCTYPE svg PUBLIC "-//W3C//DTD SVG 1.1//EN" "http://www.w3.org/Graphics/SVG/1.1/DTD/svg11.dtd">
<svg version="1.1" id="Capa_1" xmlns="http://www.w3.org/2000/svg" xmlns:xlink="http://www.w3.org/1999/xlink" x="0px" y="0px"
	 width="16383px" height="1024px" viewBox="0 0 16383 1024" enable-background="new 0 0 16383 1024" xml:space="preserve">
<g>
	<path fill="none" stroke="#FFFFFF" stroke-width="5" stroke-miterlimit="10" d="M-0.5,492
		c5433.789,772.844,10949.711-774.344,16383.5-1.5"/>
</g>
<g>
	<path fill="none" stroke="#FFFFFF" stroke-width="5" stroke-miterlimit="10" d="M-0.5,513
		c5433.789,772.844,10949.711-774.344,16383.5-1.5"/>
</g>
<g>
	<path fill="none" stroke="#FFFFFF" stroke-width="5" stroke-miterlimit="10" d="M-0.5,533
		c5433.789,772.844,10949.711-774.344,16383.5-1.5"/>
</g>
<g>
	<path fill="none" stroke="#FFFFFF" stroke-width="5" stroke-miterlimit="10" d="M-0.5,572
		c5433.789,772.844,10949.711-774.344,16383.5-1.5"/>
</g>
<g>
	<path fill="none" stroke="#FFFFFF" stroke-width="5" stroke-miterlimit="10" d="M-0.5,552
		c5433.789,772.844,10949.711-774.344,16383.5-1.5"/>
</g>
<line fill="none" stroke="#FFFFFF" stroke-width="7" x1="2.5" y1="489" x2="2.5" y2="575"/>
<g>
	<title>Layer 1</title>
	<g id="Layer_1">
		<path id="path9" fill="#FFFFFF" stroke="#aaaaaa" d="M51.968,542.242c-2.216,0.416-4.214,1.35-6.066,2.773
			c-1.853,1.449-2.761,3.043-2.761,4.762c0,1.082,0.545,2.309,1.598,3.609c1.053,1.324,2.652,2.283,4.722,2.898
			c0.69,0.096,1.017,0.342,1.017,0.686c0,0.123-0.254,0.246-0.872,0.346c-3.305-0.566-6.03-1.77-8.136-3.561
			c-2.106-1.816-3.196-3.881-3.269-6.236c0.109-2.529,1.235-4.887,3.378-7.047c2.179-2.186,4.976-3.73,8.39-4.639l-2.506-8.717
			c-5.593,3.145-10.134,6.41-13.657,9.846c-3.523,3.412-5.339,7.121-5.485,11.121c0.073,1.791,0.618,3.535,1.635,5.205
			c1.017,1.693,2.542,3.219,4.577,4.615c4.104,2.773,9.444,4.223,15.945,4.369c2.216-0.1,4.577-0.367,7.12-0.811L51.968,542.242z
			 M54.583,541.996l5.666,18.879c5.594-1.521,8.391-4.838,8.391-9.893c-0.327-1.695-1.054-3.219-2.288-4.568
			c-1.199-1.373-2.797-2.453-4.831-3.238C59.486,542.389,57.198,541.996,54.583,541.996z M47.137,516.463
			c1.198-0.492,2.579-1.35,4.068-2.553c1.489-1.178,2.942-2.578,4.322-4.149c1.417-1.596,2.543-3.217,3.378-4.861
			c0.835-1.62,1.235-3.167,1.235-4.59c0-0.613-0.073-1.229-0.254-1.769c-0.145-0.883-0.545-1.571-1.235-2.038
			c-0.69-0.44-1.562-0.687-2.652-0.687c-2.179,0-4.141,0.908-5.884,2.725c-1.344,1.571-2.47,3.438-3.269,5.548
			c-0.835,2.136-1.308,4.248-1.38,6.383C45.647,512.904,46.228,514.895,47.137,516.463z M44.848,517.889
			c-1.634-3.977-2.542-8.028-2.724-12.152c0.037-2.652,0.436-5.132,1.199-7.439c0.727-2.308,1.78-4.297,3.16-6.015
			c1.344-1.719,2.906-3.021,4.649-3.903c1.562-0.786,2.688-1.203,3.305-1.203c0.472,0,0.872,0.122,1.235,0.345
			c0.363,0.221,0.835,0.589,1.417,1.08c4.323,4.148,6.502,9.157,6.502,15c0,2.774-0.545,5.476-1.635,8.176
			c-1.053,2.676-2.615,5.229-4.686,7.61c-2.106,2.406-4.577,4.492-7.446,6.285l2.942,9.672c1.598-0.123,2.688-0.221,3.305-0.221
			c2.761,0,5.231,0.393,7.519,1.18c2.288,0.785,4.25,1.84,5.848,3.191c1.599,1.326,2.833,2.848,3.705,4.564
			c0.835,1.719,1.308,3.512,1.308,5.377c0,2.896-1.126,5.549-3.378,7.932c-2.252,2.381-5.63,4.123-10.17,5.252
			c0.291,1.205,0.799,2.947,1.562,5.182c0.727,2.258,1.271,4.053,1.634,5.377c0.363,1.324,0.509,2.602,0.509,3.854
			c0,1.939-0.69,3.658-2.071,5.18c-1.416,1.521-3.305,2.701-5.702,3.535c-2.361,0.836-4.977,1.254-7.81,1.254
			c-3.996,0-7.482-0.762-10.461-2.262c-2.979-1.521-4.577-3.559-4.722-6.16c0.108-1.154,0.508-2.234,1.235-3.266
			c0.726-1.031,1.707-1.865,2.979-2.504c1.235-0.662,2.724-1.008,4.431-1.08c1.417,0,2.761,0.271,4.032,0.783
			c1.235,0.541,2.252,1.256,3.015,2.162c0.726,0.908,1.125,1.914,1.125,2.994c0,1.447-0.726,2.676-2.179,3.684
			c-1.453,1.006-3.306,1.521-5.521,1.521h-0.835c1.417,1.473,3.741,2.234,6.974,2.234c1.634,0,3.305-0.244,4.976-0.688
			c1.707-0.467,3.124-1.08,4.322-1.865c1.199-0.785,1.998-1.621,2.325-2.504c0.618-1.008,0.908-2.406,0.908-4.148
			c0-1.18-0.182-2.357-0.508-3.537c-0.327-1.154-0.836-2.699-1.526-4.613c-0.69-1.891-1.199-3.363-1.489-4.371
			c-2.18,0.367-4.432,0.566-6.792,0.566c-3.959,0-7.701-0.541-11.224-1.646s-6.61-2.629-9.298-4.592
			c-2.651-1.965-4.722-4.174-6.211-6.678c-1.453-2.479-2.215-5.082-2.252-7.783c0.146-2.502,0.835-4.908,2.144-7.168
			c1.307-2.281,2.978-4.443,5.049-6.457c2.07-2.012,4.213-3.854,6.429-5.5C38.201,522.504,41.143,520.418,44.848,517.889z"/>
	</g>
</g>
</svg>
