<?xml version="1.0" encoding="utf-8"?>
<!-- Generator: Adobe Illustrator 16.0.0, SVG Export Plug-In . SVG Version: 6.00 Build 0)  -->
<!DOCTYPE svg PUBLIC "-//W3C//DTD SVG 1.1//EN" "http://www.w3.org/Graphics/SVG/1.1/DTD/svg11.dtd">
<svg version="1.1" id="Capa_1" xmlns="http://www.w3.org/2000/svg" xmlns:xlink="http://www.w3.org/1999/xlink" x="0px" y="0px"
	 width="2162.699px" height="122px" viewBox="0 0 2162.699 122" enable-background="new 0 0 2162.699 122" xml:space="preserve">
<path id="path9" fill="#FFFFFF" d="M33.77,66.352c-2.202,0.391-4.243,1.437-6.19,3.104c-1.95,1.698-2.994,3.634-3.165,5.773
	c-0.106,1.348,0.302,2.91,1.2,4.594c0.896,1.713,2.359,3.001,4.316,3.885c0.663,0.163,0.958,0.487,0.923,0.916
	c-0.013,0.152-0.272,0.291-0.884,0.378c-3.167-0.898-5.704-2.555-7.58-4.912c-1.874-2.388-2.731-5.021-2.568-7.962
	c0.357-3.145,1.688-6.021,3.993-8.584c2.342-2.598,5.223-4.363,8.642-5.295l-1.579-11.009c-5.766,3.592-10.517,7.396-14.294,11.475
	c-3.773,4.048-5.913,8.563-6.452,13.54c-0.106,2.235,0.251,4.439,1.077,6.583c0.824,2.172,2.16,4.157,4.004,6.021
	c3.727,3.697,8.789,5.816,15.114,6.375c2.17,0.008,4.499-0.191,7.022-0.595L33.77,66.352z M36.344,66.196l3.649,23.86
	c5.605-1.572,8.661-5.542,9.164-11.841c-0.151-2.131-0.708-4.07-1.778-5.825c-1.031-1.783-2.482-3.225-4.389-4.32
	C41.086,66.972,38.894,66.349,36.344,66.196z M31.619,33.939c1.218-0.542,2.649-1.532,4.22-2.945
	c1.569-1.382,3.125-3.043,4.626-4.92c1.54-1.905,2.799-3.86,3.776-5.863c0.976-1.968,1.519-3.874,1.66-5.649
	c0.061-0.765,0.051-1.535-0.072-2.217c-0.054-1.11-0.375-1.99-1.002-2.612c-0.629-0.591-1.455-0.947-2.517-1.011
	c-2.125-0.127-4.128,0.891-6.008,3.054c-1.467,1.881-2.75,4.139-3.738,6.726c-1.026,2.614-1.697,5.218-1.979,7.875
	C30.52,29.416,30.889,31.929,31.619,33.939z M29.246,35.582c-1.199-5.052-1.682-10.153-1.449-15.303
	c0.299-3.304,0.935-6.371,1.907-9.204c0.938-2.834,2.162-5.252,3.678-7.312c1.481-2.064,3.134-3.595,4.922-4.595
	c1.601-0.888,2.739-1.343,3.342-1.308c0.46,0.028,0.838,0.204,1.17,0.5c0.333,0.296,0.756,0.783,1.273,1.429
	c3.804,5.422,5.432,11.792,4.851,19.074c-0.275,3.459-1.075,6.793-2.405,10.096c-1.293,3.275-3.069,6.366-5.324,9.213
	c-2.293,2.876-4.909,5.332-7.885,7.399L35.233,57.8c1.571-0.059,2.643-0.119,3.245-0.084c2.691,0.16,5.061,0.795,7.215,1.906
	c2.153,1.114,3.96,2.543,5.385,4.319c1.427,1.746,2.48,3.715,3.159,5.908c0.644,2.189,0.926,4.449,0.741,6.775
	c-0.288,3.611-1.649,6.851-4.081,9.688c-2.434,2.837-5.899,4.813-10.438,5.956c0.164,1.516,0.487,3.718,1.008,6.546
	c0.484,2.856,0.838,5.122,1.061,6.798c0.223,1.673,0.237,3.272,0.113,4.834c-0.193,2.413-1.036,4.52-2.533,6.334
	c-1.532,1.813-3.491,3.171-5.912,4.071c-2.385,0.908-4.976,1.275-7.739,1.109c-3.896-0.237-7.22-1.388-9.976-3.428
	c-2.753-2.068-4.109-4.704-3.992-7.957c0.221-1.43,0.717-2.753,1.528-3.996c0.811-1.242,1.85-2.228,3.152-2.948
	c1.271-0.755,2.756-1.098,4.429-1.09c1.381,0.084,2.665,0.498,3.853,1.215c1.15,0.745,2.071,1.691,2.725,2.868
	c0.618,1.175,0.908,2.454,0.801,3.798c-0.145,1.807-0.975,3.294-2.49,4.464c-1.518,1.171-3.374,1.705-5.535,1.573l-0.813-0.05
	c1.234,1.92,3.426,3.004,6.577,3.191c1.595,0.096,3.248-0.113,4.921-0.565c1.711-0.483,3.153-1.167,4.399-2.075
	c1.247-0.91,2.109-1.902,2.515-2.984c0.703-1.221,1.125-2.949,1.298-5.12c0.116-1.465,0.057-2.948-0.146-4.437
	c-0.204-1.456-0.546-3.411-1.029-5.842c-0.484-2.396-0.834-4.263-1.018-5.533c-2.161,0.332-4.376,0.446-6.679,0.307
	c-3.86-0.231-7.455-1.124-10.78-2.707c-3.326-1.578-6.186-3.659-8.611-6.259c-2.391-2.606-4.188-5.48-5.393-8.686
	c-1.17-3.173-1.656-6.463-1.423-9.832c0.39-3.114,1.302-6.07,2.801-8.81c1.502-2.769,3.345-5.365,5.563-7.75
	c2.219-2.39,4.491-4.557,6.815-6.479C22.307,40.946,25.383,38.517,29.246,35.582z"/>
<path id="path11" fill="none" stroke="#FFFFFF" stroke-width="3" d="M0,66.954l2155.462-0.003"/>
<path id="path13" fill="none" stroke="#FFFFFF" stroke-width="3" d="M0,99.976l2155.462-0.2"/>
<path id="path15" fill="none" stroke="#FFFFFF" stroke-width="3" d="M0,83.364h2155.462"/>
<path id="path17" fill="none" stroke="#FFFFFF" stroke-width="3" d="M0,50.542h2155.462"/>
<path id="path19" fill="none" stroke="#FFFFFF" stroke-width="3" d="M0,34.129h2155.462"/>
<path id="path4032_8_" fill="none" stroke="#FFFFFF" stroke-linecap="round" d="M685.001,100.295"/>
<path id="path4032_7_" fill="none" stroke="#FFFFFF" stroke-linecap="round" d="M685.001,34.248"/>
<rect id="rect4030" x="2153.931" y="33.583" fill="#FFFFFF" stroke="#FFFFFF" width="10.298" height="66.742"/>
<path id="path4032_1_" fill="none" stroke="#FFFFFF" stroke-linecap="round" d="M313.501,34.522v66.047"/>
<path id="path4032_2_" fill="none" stroke="#FFFFFF" stroke-linecap="round" d="M1080.001,33.931v66.048"/>
<path id="path4032_3_" fill="none" stroke="#FFFFFF" stroke-linecap="round" d="M1433.22,34.838v66.045"/>
<path id="path4032_4_" fill="none" stroke="#FFFFFF" stroke-linecap="round" d="M1796.501,34.838v66.045"/>
<path id="path4032_6_" fill="none" stroke="#FFFFFF" stroke-linecap="round" d="M686.001,34.522v66.047"/>
</svg>
