<?xml version="1.0" encoding="utf-8"?>
<!-- Generator: Adobe Illustrator 16.0.0, SVG Export Plug-In . SVG Version: 6.00 Build 0)  -->
<!DOCTYPE svg PUBLIC "-//W3C//DTD SVG 1.1//EN" "http://www.w3.org/Graphics/SVG/1.1/DTD/svg11.dtd">
<svg version="1.1" id="Capa_1" xmlns="http://www.w3.org/2000/svg" xmlns:xlink="http://www.w3.org/1999/xlink" x="0px" y="0px"
	 width="16383px" height="1024px" viewBox="0 0 16383 1024" enable-background="new 0 0 16383 1024" xml:space="preserve">
<g>
	<path fill="none" stroke="#ffffff" stroke-width="5" stroke-miterlimit="10" d="M-0.5,492
		c5433.789,772.844,10949.711-774.344,16383.5-1.5"/>
</g>
<g>
	<path fill="none" stroke="#ffffff" stroke-width="5" stroke-miterlimit="10" d="M-0.5,513
		c5433.789,772.844,10949.711-774.344,16383.5-1.5"/>
</g>
<g>
	<path fill="none" stroke="#ffffff" stroke-width="5" stroke-miterlimit="10" d="M-0.5,533
		c5433.789,772.844,10949.711-774.344,16383.5-1.5"/>
</g>
<g>
	<path fill="none" stroke="#ffffff" stroke-width="5" stroke-miterlimit="10" d="M-0.5,572
		c5433.789,772.844,10949.711-774.344,16383.5-1.5"/>
</g>
<g>
	<path fill="none" stroke="#ffffff" stroke-width="5" stroke-miterlimit="10" d="M-0.5,552
		c5433.789,772.844,10949.711-774.344,16383.5-1.5"/>
</g>
<g>
	<title>Layer 1</title>
	<g id="Layer_1">
		<path id="path9" fill="#ffffff" stroke="#bbbbbb" d="M40.267,536.245c-2.216,0.416-4.214,1.35-6.066,2.774
			c-1.853,1.448-2.761,3.043-2.761,4.761c0,1.081,0.545,2.309,1.598,3.61c1.053,1.324,2.652,2.282,4.722,2.897
			c0.69,0.097,1.017,0.342,1.017,0.687c0,0.122-0.254,0.245-0.872,0.344c-3.305-0.565-6.03-1.769-8.136-3.56
			c-2.106-1.817-3.196-3.881-3.269-6.236c0.109-2.529,1.235-4.887,3.378-7.046c2.179-2.186,4.976-3.73,8.39-4.641l-2.506-8.716
			c-5.593,3.144-10.134,6.409-13.657,9.845c-3.523,3.413-5.339,7.121-5.485,11.121c0.073,1.792,0.618,3.536,1.635,5.206
			c1.017,1.693,2.542,3.218,4.577,4.615c4.104,2.774,9.444,4.223,15.945,4.369c2.216-0.099,4.577-0.367,7.12-0.811L40.267,536.245z
			 M42.882,535.999l5.666,18.878c5.594-1.521,8.391-4.837,8.391-9.893c-0.327-1.695-1.054-3.217-2.288-4.567
			c-1.199-1.373-2.797-2.454-4.831-3.239C47.785,536.391,45.497,535.999,42.882,535.999z M35.436,510.466
			c1.198-0.492,2.579-1.35,4.068-2.553c1.489-1.179,2.942-2.578,4.322-4.149c1.417-1.596,2.543-3.217,3.378-4.862
			c0.835-1.62,1.235-3.167,1.235-4.59c0-0.613-0.073-1.228-0.254-1.768c-0.145-0.883-0.545-1.571-1.235-2.038
			c-0.69-0.441-1.562-0.687-2.652-0.687c-2.179,0-4.141,0.909-5.884,2.725c-1.344,1.571-2.47,3.437-3.269,5.548
			c-0.835,2.136-1.308,4.248-1.38,6.383C33.946,506.907,34.527,508.896,35.436,510.466z M33.147,511.891
			c-1.634-3.977-2.542-8.028-2.724-12.152c0.037-2.652,0.436-5.132,1.199-7.439c0.727-2.308,1.78-4.297,3.16-6.015
			c1.344-1.719,2.906-3.02,4.649-3.903c1.562-0.786,2.688-1.203,3.305-1.203c0.472,0,0.872,0.122,1.235,0.344
			c0.363,0.221,0.835,0.589,1.417,1.081c4.323,4.148,6.502,9.157,6.502,15c0,2.774-0.545,5.475-1.635,8.175
			c-1.053,2.676-2.615,5.229-4.686,7.611c-2.106,2.406-4.577,4.492-7.446,6.284l2.942,9.672c1.598-0.122,2.688-0.222,3.305-0.222
			c2.761,0,5.231,0.393,7.519,1.18c2.288,0.786,4.25,1.842,5.848,3.191c1.599,1.326,2.833,2.849,3.705,4.566
			c0.835,1.718,1.308,3.511,1.308,5.376c0,2.897-1.126,5.549-3.378,7.931s-5.63,4.124-10.17,5.253
			c0.291,1.205,0.799,2.947,1.562,5.181c0.727,2.258,1.271,4.052,1.634,5.377c0.363,1.325,0.509,2.602,0.509,3.854
			c0,1.939-0.69,3.658-2.071,5.179c-1.416,1.521-3.305,2.702-5.702,3.536c-2.361,0.835-4.977,1.253-7.81,1.253
			c-3.996,0-7.482-0.762-10.461-2.261c-2.979-1.521-4.577-3.558-4.722-6.16c0.108-1.155,0.508-2.234,1.235-3.266
			c0.726-1.031,1.707-1.866,2.979-2.504c1.235-0.663,2.724-1.008,4.431-1.08c1.417,0,2.761,0.271,4.032,0.784
			c1.235,0.541,2.252,1.254,3.015,2.161c0.726,0.909,1.125,1.914,1.125,2.995c0,1.447-0.726,2.675-2.179,3.683
			c-1.453,1.006-3.306,1.521-5.521,1.521h-0.835c1.417,1.474,3.741,2.235,6.974,2.235c1.634,0,3.305-0.245,4.976-0.688
			c1.707-0.467,3.124-1.08,4.322-1.865c1.199-0.786,1.998-1.621,2.325-2.504c0.618-1.008,0.908-2.407,0.908-4.149
			c0-1.179-0.182-2.356-0.508-3.536c-0.327-1.154-0.836-2.7-1.526-4.614c-0.69-1.89-1.199-3.363-1.489-4.371
			c-2.18,0.368-4.432,0.566-6.792,0.566c-3.959,0-7.701-0.541-11.224-1.645c-3.523-1.106-6.61-2.629-9.298-4.592
			c-2.651-1.965-4.722-4.175-6.211-6.679c-1.453-2.478-2.215-5.081-2.252-7.782c0.146-2.503,0.835-4.909,2.144-7.168
			c1.307-2.282,2.978-4.443,5.049-6.457c2.07-2.014,4.213-3.854,6.429-5.5C26.5,516.506,29.442,514.42,33.147,511.891z"/>
	</g>
</g>
<line fill="none" stroke="#bbbbbb" stroke-width="7" x1="2.5" y1="489" x2="2.5" y2="575"/>
</svg>
