<svg id="Capa_1" data-name="Capa 1" xmlns="http://www.w3.org/2000/svg" viewBox="0 0 1900 78.86"><defs><style>.cls-1,.cls-3{fill:none;}.cls-2{fill:#31313d;}.cls-3{stroke:#31313d;stroke-miterlimit:10;stroke-width:2px;}</style></defs><title>Pentagrma-recto</title><path class="cls-1" d="M19,2.59h0Z"/><path class="cls-1" d="M18.92,2h0Z"/><path class="cls-1" d="M20.91,18a13,13,0,0,0,.62-2.15c0.07-.37.13-0.78,0.18-1.13L21.79,14l0.05-.58a25.83,25.83,0,0,0,0-4.81A12.25,12.25,0,0,0,20.55,4.2a4,4,0,0,0-1.23-1.45,1.19,1.19,0,0,0-.26-0.13L19,2.6s-0.06,0,0,0H18.94a0.83,0.83,0,0,0-.27.24,6.07,6.07,0,0,0-.89,1.92,20,20,0,0,0-.55,2.37,42.24,42.24,0,0,0-.54,5c-0.09,1.68-.13,3.36-0.14,5,0,2.35.08,4.68,0.19,7,0.65-.74,1.29-1.48,1.87-2.24A16,16,0,0,0,20.91,18Z"/><path class="cls-1" d="M18.68,54.65c-0.48-2.79-1-5.67-1.42-8.65q-0.32-2.07-.61-4.2l-0.06,0a7.74,7.74,0,0,0-3.24,2.4,8,8,0,0,0-1.49,3.12A6.21,6.21,0,0,0,11.8,50a4.18,4.18,0,0,0,.69,1.61,3.17,3.17,0,0,0,.31.37l0.11,0.12-0.16-.06L12.56,52l-0.26-.13a4.08,4.08,0,0,1-1.48-1.4,6.72,6.72,0,0,1-1-3.23,9.14,9.14,0,0,1,.91-4.6,10.09,10.09,0,0,1,4.12-4.35c0.24-.14.49-0.26,0.75-0.39L16,37.73l0.15-.07q-0.29-2.53-.55-5.12l-0.24.23-1.87,1.76c-0.58.54-1.14,1.1-1.68,1.68a28.87,28.87,0,0,0-2.91,3.66,18,18,0,0,0-3.15,8.39c0,0.37,0,.73,0,1.1s0,0.73.07,1.09a9.32,9.32,0,0,0,.46,2.12,9.07,9.07,0,0,0,.93,1.94,8.33,8.33,0,0,0,1.36,1.67,9.82,9.82,0,0,0,1.69,1.3l0.51,0.28L11,57.87,11.22,58l0.5,0.23,0.51,0.2a13,13,0,0,0,4.22.86,11.09,11.09,0,0,0,3-.3l0-.23Z"/><path class="cls-1" d="M27,49.95V49.61a7.61,7.61,0,0,0-.1-0.77,8.24,8.24,0,0,0-.4-1.47A10.25,10.25,0,0,0,25,44.78a9.06,9.06,0,0,0-4.15-3.13,5.94,5.94,0,0,0-2.18-.3,5.14,5.14,0,0,0-.53.05h0q0.24,2.24.49,4.42c0.53,4.51,1.12,8.83,1.67,12.92a10.26,10.26,0,0,0,3.7-2.1,8.7,8.7,0,0,0,3-6.21V49.94S27,50,27,49.95Z"/><path class="cls-2" d="M30.35,46.26a11.19,11.19,0,0,0-.69-2.11,12.12,12.12,0,0,0-7.52-6.78,9.92,9.92,0,0,0-2-.35,9.7,9.7,0,0,0-2,.08l-0.51.08q-0.29-3.07-.53-6.22a44.38,44.38,0,0,0,5.33-6.31,19.85,19.85,0,0,0,2.61-5.26,17.42,17.42,0,0,0,.63-2.93c0.06-.49.1-1,0.13-1.47l0-.66V13.62A22.59,22.59,0,0,0,25.26,8,15.93,15.93,0,0,0,23,2.66a8.81,8.81,0,0,0-1-1.2,5.65,5.65,0,0,0-1.38-1A3.67,3.67,0,0,0,19.64.07,3,3,0,0,0,19.08,0H18.81a2.59,2.59,0,0,0-.37.05,2.72,2.72,0,0,0-1.09.52,3.64,3.64,0,0,0-.68.71,8.32,8.32,0,0,0-1.21,2.8A22.3,22.3,0,0,0,15,6.78a71.69,71.69,0,0,0-.36,10.39c0.07,3,.23,5.93.43,8.83-1,1.09-2.09,2.17-3.13,3.24-0.6.62-1.2,1.21-1.81,1.85s-1.25,1.35-1.83,2.06a27.26,27.26,0,0,0-3,4.59A22,22,0,0,0,3.3,42.85a17.89,17.89,0,0,0-.51,5.41c0,0.45.09,0.9,0.13,1.35s0.15,0.89.27,1.33a13,13,0,0,0,.9,2.53,11.7,11.7,0,0,0,3.22,4.1L7.82,58l0.53,0.36c0.34,0.24.75,0.45,1.11,0.66L10,59.22l0.29,0.14,0.28,0.11,0.56,0.23,0.57,0.2a16.18,16.18,0,0,0,4.71.86,15.84,15.84,0,0,0,3.25-.24c0.12,0.74.23,1.47,0.33,2.19,0.19,1.29.33,2.56,0.44,3.8a30.86,30.86,0,0,1,.14,3.63,15.6,15.6,0,0,1-.14,1.72c0,0.13,0,.29-0.06.4l-0.09.42c-0.07.26-.13,0.5-0.23,0.75A6.5,6.5,0,0,1,18.4,76,5.75,5.75,0,0,1,16,77.34l-0.33.07-0.08,0H15.48l-0.18,0a5.9,5.9,0,0,1-.65,0,5.5,5.5,0,0,1-1.26-.11A5.41,5.41,0,0,1,12.27,77a4.55,4.55,0,0,1-.92-0.61,3.47,3.47,0,0,1-1-1.61A3.33,3.33,0,0,1,10.17,74a3.28,3.28,0,0,1,0-.42l0-.2c0,0.06,0,0,0,0V73.11a4.39,4.39,0,0,1,.16-0.68,3.73,3.73,0,0,1,.26-0.6,2.43,2.43,0,0,1,.42-0.55,3.34,3.34,0,0,0,5.31-2.71A3.43,3.43,0,0,0,13,65.13a5,5,0,0,0-3.92,1.65,7.46,7.46,0,0,0-2,4.11,7.24,7.24,0,0,0-.07,1.22,8.64,8.64,0,0,0,.14,1.29,7.62,7.62,0,0,0,1,2.46,6.4,6.4,0,0,0,2.09,2,6.22,6.22,0,0,0,1.36.62,7,7,0,0,0,1.48.33,7.63,7.63,0,0,0,1.56,0,7.25,7.25,0,0,0,.79-0.12l0.18,0,0.11,0,0.1,0,0.39-.11a7,7,0,0,0,2.83-1.76,7.77,7.77,0,0,0,1.79-3,8.81,8.81,0,0,0,.24-0.89l0.07-.43c0-.17,0-0.3.06-0.46a16.43,16.43,0,0,0,.11-1.81,56.65,56.65,0,0,0-.6-7.56l-0.3-2.26a14.49,14.49,0,0,0,4.76-2,12.62,12.62,0,0,0,3.32-3.21A11.41,11.41,0,0,0,30.12,52c0.07-.18.11-0.39,0.16-0.59s0.1-.42.13-0.56l0.1-.48,0.08-.64a9.09,9.09,0,0,0,0-1.17A10.42,10.42,0,0,0,30.35,46.26ZM19,2.59h0Zm0-.59h0ZM16.55,17.14c0-1.67,0-3.35.14-5a42.24,42.24,0,0,1,.54-5,20,20,0,0,1,.55-2.37,6.07,6.07,0,0,1,.89-1.92,0.83,0.83,0,0,1,.27-0.24H19c-0.09,0,0,0,0,0l0.08,0a1.19,1.19,0,0,1,.26.13A4,4,0,0,1,20.55,4.2a12.25,12.25,0,0,1,1.27,4.43,25.83,25.83,0,0,1,0,4.81L21.79,14l-0.07.65c-0.05.36-.11,0.76-0.18,1.13A13,13,0,0,1,20.91,18a16,16,0,0,1-2.3,3.93c-0.58.75-1.22,1.5-1.87,2.24C16.63,21.82,16.56,19.49,16.55,17.14Zm-0.1,42.15a13,13,0,0,1-4.22-.86l-0.51-.2L11.22,58,11,57.87l-0.23-.13-0.51-.28a9.82,9.82,0,0,1-1.69-1.3A8.33,8.33,0,0,1,7.18,54.5a9.07,9.07,0,0,1-.93-1.94,9.32,9.32,0,0,1-.46-2.12c-0.05-.36-0.05-0.73-0.07-1.09s0-.73,0-1.1a18,18,0,0,1,3.15-8.39,28.87,28.87,0,0,1,2.91-3.66c0.54-.58,1.09-1.14,1.68-1.68l1.87-1.76,0.24-.23q0.25,2.59.55,5.12L16,37.73l-0.41.17c-0.25.13-.51,0.25-0.75,0.39a10.09,10.09,0,0,0-4.12,4.35,9.14,9.14,0,0,0-.91,4.6,6.72,6.72,0,0,0,1,3.23,4.08,4.08,0,0,0,1.48,1.4L12.56,52l0.19,0.07,0.16,0.06L12.8,52a3.17,3.17,0,0,1-.31-0.37A4.18,4.18,0,0,1,11.8,50a6.21,6.21,0,0,1,.06-2.68,8,8,0,0,1,1.49-3.12,7.74,7.74,0,0,1,3.24-2.4l0.06,0q0.29,2.13.61,4.2c0.45,3,.94,5.86,1.42,8.65l0.71,4.11,0,0.23A11.09,11.09,0,0,1,16.45,59.29ZM27,50.43a8.7,8.7,0,0,1-3,6.21,10.26,10.26,0,0,1-3.7,2.1c-0.55-4.09-1.14-8.41-1.67-12.92q-0.25-2.18-.49-4.42h0a5.14,5.14,0,0,1,.53-0.05,5.94,5.94,0,0,1,2.18.3A9.06,9.06,0,0,1,25,44.78a10.25,10.25,0,0,1,1.43,2.59,8.24,8.24,0,0,1,.4,1.47,7.61,7.61,0,0,1,.1.77v0.34c0,0.07,0,0,0,0v0.49Z"/><line class="cls-3" y1="16" x2="1900" y2="16"/><line class="cls-3" y1="27" x2="1900" y2="27"/><line class="cls-3" y1="38" x2="1900" y2="38"/><line class="cls-3" y1="49" x2="1900" y2="49"/><line class="cls-3" y1="61" x2="1900" y2="61"/></svg>