<?xml version="1.0" encoding="utf-8"?>
<!-- Generator: Adobe Illustrator 19.2.0, SVG Export Plug-In . SVG Version: 6.00 Build 0)  -->
<svg version="1.1" id="Capa_1" xmlns="http://www.w3.org/2000/svg" xmlns:xlink="http://www.w3.org/1999/xlink" x="0px" y="0px"
	 viewBox="0 0 1900 432.9" style="enable-background:new 0 0 1900 432.9;" xml:space="preserve">
<style type="text/css">
	.st0{fill:#31313D;}
	.st1{fill:none;stroke:#31313D;stroke-width:2;stroke-miterlimit:10;}
</style>
<path class="st0" d="M33.6,72.3c-0.3-0.8-0.7-1.6-1.2-2.3c-0.4-0.7-0.9-1.4-1.5-2c-2.2-2.4-5.1-4-8.2-4.4c-0.8-0.1-1.5-0.1-2.3,0
	c-0.8,0.1-1.5,0.2-2.2,0.4c-0.2,0.1-0.4,0.1-0.6,0.2c-0.6-2.3-1.1-4.6-1.7-7c1.8-2.5,3.5-5.1,4.9-8.1c0.9-2,1.7-4.1,2-6.4
	c0.2-1.1,0.2-2.3,0.2-3.4c0-0.6-0.1-1.1-0.1-1.7L23,36.8L22.9,36c-0.3-2.1-0.9-4.3-1.7-6.3c-0.8-2-1.9-4-3.5-5.7
	c-0.4-0.4-0.8-0.8-1.3-1.2c-0.5-0.4-1.1-0.7-1.7-0.9c-0.3-0.1-0.7-0.2-1.1-0.2c-0.2,0-0.4,0-0.6,0c-0.1,0-0.1,0-0.2,0l-0.1,0
	c-0.1,0-0.3,0.1-0.4,0.1c-0.5,0.2-0.9,0.5-1.1,0.8c-0.3,0.3-0.5,0.6-0.7,0.9c-0.6,1.2-0.8,2.3-0.9,3.4c-0.1,1.1-0.1,2.1-0.1,3.1
	c0.1,4.1,0.7,8,1.4,11.9c0.6,3.4,1.3,6.7,2,10c-1,1.4-2,2.8-3,4.2c-0.6,0.8-1.2,1.6-1.7,2.4c-0.6,0.9-1.2,1.7-1.7,2.7
	C5.1,63,4.3,65,3.6,67c-0.7,2-1.1,4.1-1.3,6.1c-0.2,2.1-0.1,4.2,0.4,6.2c0.1,0.5,0.3,1,0.4,1.5c0.2,0.5,0.3,1,0.5,1.5
	c0.4,1,0.9,1.9,1.5,2.7c1.1,1.7,2.7,3.1,4.4,4.1l0.6,0.4l0.7,0.3c0.4,0.2,0.9,0.4,1.4,0.6l0.6,0.2l0.4,0.1l0.3,0.1l0.7,0.2l0.7,0.1
	c1.8,0.3,3.7,0.4,5.5,0.2c1.3-0.2,2.5-0.4,3.7-0.8c0.3,0.8,0.5,1.6,0.8,2.4c0.4,1.4,0.8,2.9,1.2,4.2c0.3,1.4,0.6,2.8,0.8,4.1
	c0.1,0.7,0.1,1.3,0.1,2c0,0.2,0,0.3,0,0.5l0,0.5c0,0.3-0.1,0.6-0.1,0.9c-0.2,1.2-0.7,2.3-1.4,3.2c-0.7,0.9-1.6,1.6-2.5,2l-0.4,0.1
	l-0.1,0c0,0,0,0,0,0l-0.1,0l-0.2,0.1c-0.2,0.1-0.5,0.1-0.7,0.2c-0.5,0.1-1,0.1-1.4,0.1c-0.5,0-0.9-0.1-1.3-0.2
	c-0.4-0.1-0.8-0.3-1.1-0.5c-0.7-0.4-1.2-1-1.5-1.6c-0.2-0.3-0.2-0.6-0.3-0.9c0-0.2-0.1-0.3-0.1-0.5l0-0.2c0,0.1,0,0,0,0l0,0l0-0.1
	l0-0.1c0-0.2,0-0.6,0.1-0.8c0-0.3,0.1-0.5,0.2-0.7c0.1-0.3,0.2-0.5,0.4-0.7c0.7,0.4,1.5,0.5,2.3,0.4c2.1-0.3,3.5-2.3,3.2-4.4
	c-0.3-2.1-2.3-3.6-4.4-3.3c-1.5,0.2-3,0.9-4.2,2.6c-1,1.4-1.6,3.2-1.5,5c0,0.5,0,0.9,0.1,1.4c0.1,0.5,0.2,0.9,0.4,1.4
	c0.3,0.9,0.9,1.8,1.6,2.6c0.7,0.8,1.7,1.5,2.7,1.9c0.5,0.2,1.1,0.4,1.7,0.5c0.6,0.1,1.2,0.1,1.7,0.1c0.6,0,1.2-0.1,1.8-0.3
	c0.3-0.1,0.6-0.2,0.9-0.3l0.2-0.1l0.1,0l0.1,0l0.4-0.2c0.6-0.3,1.1-0.6,1.6-1.1c0.5-0.4,0.9-0.9,1.3-1.4c0.8-1.1,1.3-2.4,1.5-3.7
	c0.1-0.3,0.1-0.7,0.1-1l0-0.5c0-0.2,0-0.4,0-0.5c0-0.7-0.1-1.4-0.2-2.1c-0.4-2.8-1.2-5.6-2-8.5c-0.2-0.8-0.5-1.7-0.7-2.5
	c1.9-0.7,3.6-1.8,5.1-3.1c1.3-1.2,2.4-2.6,3.2-4.2c0.4-0.8,0.7-1.6,0.9-2.5c0.1-0.4,0.2-0.9,0.3-1.3c0-0.2,0.1-0.5,0.1-0.7
	c0-0.2,0-0.5,0-0.7l0-0.6l0-0.7c0-0.4-0.1-0.9-0.2-1.3C34.2,73.9,33.9,73.1,33.6,72.3z M13,24.6C13.1,24.6,13,24.6,13,24.6
	C13,24.6,13.1,24.6,13,24.6z M13,24.4L13,24.4C12.9,24.4,12.9,24.4,13,24.4z M12.8,41.6c-0.3-1.9-0.5-3.8-0.7-5.7
	c-0.2-1.9-0.3-3.9-0.3-5.8c0-0.9,0.1-1.9,0.2-2.8c0.1-0.9,0.4-1.8,0.7-2.3c0.1-0.2,0.2-0.3,0.3-0.3l0.1,0c-0.1,0,0,0,0,0
	c0,0,0.1,0,0.1,0c0.1,0,0.2,0,0.3,0.1c0.5,0.2,1.1,0.8,1.7,1.4c1,1.3,1.7,3.1,2.2,4.8c0.5,1.8,0.7,3.6,0.9,5.5l0,0.7l0,0.8
	c0,0.4,0,0.9,0,1.3c0,0.9-0.1,1.7-0.3,2.6c-0.4,1.7-1.1,3.3-1.9,4.9c-0.5,1-1.1,1.9-1.7,2.9C13.7,46.9,13.3,44.3,12.8,41.6z
	 M20.1,89.5c-0.8,0.1-1.6,0.1-2.5,0.1c-0.8,0-1.7-0.2-2.5-0.3l-0.6-0.1l-0.6-0.2l-0.3-0.1l-0.3-0.1l-0.6-0.2
	c-0.7-0.3-1.5-0.7-2.1-1.2c-0.7-0.5-1.3-1-1.8-1.7c-0.5-0.6-1-1.3-1.4-2c-0.4-0.7-0.7-1.5-0.9-2.3c-0.1-0.4-0.2-0.8-0.3-1.2
	C6.1,79.7,6,79.2,6,78.8C5.8,75.4,6.6,72,8.1,68.7c0.7-1.6,1.7-3.2,2.7-4.7c0.5-0.7,1-1.5,1.6-2.2c0.6-0.8,1.2-1.5,1.8-2.3
	c0.1-0.1,0.2-0.2,0.2-0.3c0.5,1.9,1,3.8,1.5,5.7c-0.1,0-0.1,0.1-0.2,0.1l-0.4,0.3c-0.3,0.2-0.5,0.4-0.8,0.6c-2,1.6-3.3,3.7-3.9,5.7
	c-0.6,2-0.6,3.9-0.2,5.4c0.4,1.5,1,2.7,1.7,3.5c0.7,0.8,1.4,1.2,1.9,1.3c0.1,0,0.2,0.1,0.3,0.1c0.1,0,0.2,0,0.2,0c0.1,0,0.2,0,0.2,0
	s-0.1,0-0.2-0.1c-0.1-0.1-0.3-0.2-0.4-0.4c-0.3-0.3-0.8-0.9-1.1-1.7c-0.3-0.8-0.5-1.9-0.4-3c0.1-1.2,0.4-2.5,1.1-3.8
	c0.7-1.3,1.8-2.4,3.3-3.3c0,0,0,0,0.1,0c0.5,1.6,0.9,3.1,1.4,4.7c1,3.3,2.1,6.5,3.1,9.6c0.5,1.5,1,3.1,1.5,4.5
	c0,0.1,0.1,0.2,0.1,0.3C22.4,89.1,21.2,89.3,20.1,89.5z M30.5,77.6c0.3,2.4-0.4,5.3-2.3,7.6c-1,1.2-2.3,2.3-3.8,3
	c-1.3-4.6-2.8-9.4-4.2-14.4c-0.4-1.6-0.9-3.3-1.3-4.9c0,0,0,0,0,0c0.2-0.1,0.4-0.1,0.6-0.2c0.8-0.2,1.6-0.2,2.5,0
	c1.8,0.3,3.7,1.3,5.3,2.8c0.8,0.8,1.5,1.7,2.1,2.7c0.3,0.5,0.5,1,0.7,1.6c0.1,0.3,0.2,0.6,0.2,0.9l0,0.2l0,0.1l0,0.1
	c0,0.1,0-0.1,0,0L30.5,77.6z"/>
<path class="st1" d="M0,96.8c0,0,110.1-21.7,183,0c74.1,22.1,100.8,77,144,131.3c51.6,64.9,145.8,106.8,244,64.9
	c94.1-40.1,84-115.8,200-198.1s268-3.6,324,133.1s74,203.7,189,203.7c124,0,135.1-174,137-247c2-77,93-154,190-123.3
	c97.1,30.8,91.5,172.8,180,191.4c61,12.8,109,0,109,0"/>
<path class="st1" d="M0,86.8c0,0,110.1-21.7,183,0c74.1,22.1,100.8,77,144,131.3c51.6,64.9,145.8,106.8,244,64.9
	c94.1-40.1,84-115.8,200-198.1s270-3.6,326,133.1s72,203.7,187,203.7c124,0,131.1-174,133-247c2-77,97-154,194-123.3
	c97.1,30.8,99.9,175.9,180,191.4c66,12.8,109,0,109,0"/>
<path class="st1" d="M0,75.8c0,0,110.1-21.7,183,0c74.1,22.1,100.8,77,144,131.3c51.6,64.9,145.8,106.8,244,64.9
	c94.1-40.1,84-115.8,200-198.1s272-3.6,328,133.1s70,203.7,185,203.7c124,0,126.1-174,128-247c2-77,102-154,199-123.3
	c97.1,30.8,100.1,175.2,180,191.4c68,13.8,109,0,109,0"/>
<path class="st1" d="M0,64.8c0,0,110.1-21.7,183,0c74.1,22.1,100.8,77,144,131.3c51.6,64.9,145.8,106.8,244,64.9
	c94.1-40.1,84-115.8,200-198.1s274-3.6,330,133.1s68,203.7,183,203.7c124,0,120.1-174,122-247c2-77,108-154,205-123.3
	c97.1,30.8,99.6,177.8,180,191.4c72,12.2,109,0,109,0"/>
<path class="st1" d="M0,53.8c0,0,110.1-21.7,183,0c74.1,22.1,100.8,77,144,131.3c51.6,64.9,145.8,106.8,244,64.9
	c94.1-40.1,84-115.8,200-198.1s276-3.6,332,133.1s66,203.7,181,203.7c124,0,113.1-174,115-247c2-77,115-154,212-123.3
	c97.1,30.8,100,175.6,180,191.4s109,0,109,0"/>
<path class="st1" d="M0,42.8c0,0,110.1-21.7,183,0c74.1,22.1,100.8,77,144,131.3c51.6,64.9,145.8,106.8,244,64.9
	c94.1-40.1,84-115.8,200-198.1s278-3.6,334,133.1s64,203.7,179,203.7c124,0,107.1-167,109-240c2-77,121-161,218-130.3
	c97.1,30.8,100,175.6,180,191.4s109,0,109,0"/>
</svg>
