<?xml version="1.0" encoding="utf-8"?>
<!-- Generator: Adobe Illustrator 16.0.0, SVG Export Plug-In . SVG Version: 6.00 Build 0)  -->
<!DOCTYPE svg PUBLIC "-//W3C//DTD SVG 1.1//EN" "http://www.w3.org/Graphics/SVG/1.1/DTD/svg11.dtd">
<svg version="1.1" id="Capa_1" xmlns="http://www.w3.org/2000/svg" xmlns:xlink="http://www.w3.org/1999/xlink" x="0px" y="0px"
	 width="2162.698px" height="122px" viewBox="0 0 2162.698 122" enable-background="new 0 0 2162.698 122" xml:space="preserve">
<g id="g1934" transform="matrix(1.5,0,0,1,-2.0901338e-6,200)">
	<path id="path11" fill="none" stroke="#ffffff" stroke-width="3" d="M0-124.912l1436.973-0.001"/>
	<path id="path13" fill="none" stroke="#ffffff" stroke-width="3" d="M0-96.998l1436.973-0.17"/>
	<path id="path15" fill="none" stroke="#ffffff" stroke-width="3" d="M0-111.04h1436.973"/>
	<path id="path17" fill="none" stroke="#ffffff" stroke-width="3" d="M0-138.786h1436.973"/>
	<path id="path19" fill="none" stroke="#ffffff" stroke-width="3" d="M0-152.658h1436.973"/>
	<path id="path4032_8_" fill="none" stroke="#ffffff" stroke-width="3" stroke-linecap="round" d="M456.667-96.729"/>
	<path id="path4032_7_" fill="none" stroke="#ffffff" stroke-width="3" stroke-linecap="round" d="M456.667-152.559"/>
	<rect id="rect4030" fill="#ffffff" stroke="#ffffff"  x="1423.76" y="-153.121" width="18.039" height="56.416"/>
</g>
<path id="path9" fill="#ffffff" stroke="#ffffff" stroke-width="0" d="M33.77,79.941c-2.202,0.295-4.243,1.086-6.19,2.346
	c-1.95,1.283-2.994,2.746-3.165,4.364c-0.107,1.018,0.302,2.198,1.2,3.471c0.896,1.295,2.359,2.268,4.316,2.937
	c0.663,0.123,0.958,0.368,0.923,0.692c-0.012,0.115-0.272,0.22-0.884,0.285c-3.167-0.678-5.704-1.931-7.58-3.712
	c-1.874-1.804-2.731-3.794-2.568-6.018c0.357-2.377,1.689-4.548,3.993-6.488c2.342-1.963,5.223-3.297,8.642-4.002l-1.579-8.32
	c-5.766,2.715-10.517,5.59-14.294,8.673c-3.774,3.06-5.913,6.472-6.452,10.234c-0.107,1.691,0.251,3.357,1.077,4.975
	c0.824,1.641,2.16,3.142,4.004,4.55c3.726,2.794,8.789,4.394,15.114,4.818c2.17,0.006,4.499-0.145,7.022-0.449L33.77,79.941z
	 M36.344,79.824l3.65,18.034c5.605-1.188,8.661-4.187,9.164-8.95c-0.151-1.61-0.708-3.076-1.778-4.402
	c-1.032-1.348-2.483-2.437-4.389-3.266C41.086,80.41,38.894,79.939,36.344,79.824z M31.619,55.445
	c1.218-0.41,2.649-1.158,4.22-2.226c1.569-1.045,3.125-2.3,4.626-3.719c1.54-1.44,2.798-2.917,3.776-4.431
	c0.976-1.488,1.519-2.928,1.66-4.27c0.061-0.578,0.051-1.16-0.072-1.676c-0.054-0.839-0.375-1.504-1.002-1.974
	c-0.629-0.447-1.455-0.716-2.517-0.764c-2.125-0.096-4.128,0.673-6.008,2.308c-1.466,1.421-2.75,3.128-3.738,5.083
	c-1.026,1.976-1.697,3.944-1.979,5.952C30.52,52.026,30.889,53.925,31.619,55.445z M29.246,56.686
	c-1.199-3.818-1.682-7.674-1.449-11.566c0.298-2.497,0.934-4.815,1.907-6.956c0.937-2.142,2.162-3.969,3.678-5.526
	c1.481-1.56,3.133-2.717,4.921-3.473c1.601-0.671,2.74-1.015,3.342-0.988c0.46,0.021,0.838,0.154,1.17,0.378
	c0.333,0.224,0.756,0.592,1.274,1.08c3.803,4.098,5.431,8.912,4.85,14.416c-0.275,2.614-1.075,5.134-2.405,7.63
	c-1.293,2.475-3.069,4.811-5.324,6.963c-2.293,2.174-4.909,4.03-7.885,5.592l1.908,9.242c1.571-0.045,2.643-0.09,3.245-0.063
	c2.692,0.121,5.061,0.601,7.215,1.44c2.153,0.842,3.96,1.923,5.385,3.265c1.427,1.319,2.48,2.808,3.159,4.465
	c0.644,1.655,0.926,3.363,0.741,5.121c-0.288,2.729-1.649,5.178-4.081,7.322c-2.433,2.144-5.899,3.637-10.438,4.501
	c0.164,1.146,0.487,2.81,1.008,4.948c0.484,2.16,0.837,3.871,1.06,5.137c0.223,1.265,0.237,2.474,0.113,3.653
	c-0.193,1.827-1.036,3.416-2.533,4.788c-1.532,1.372-3.491,2.398-5.912,3.079c-2.385,0.684-4.976,0.961-7.739,0.836
	c-3.896-0.177-7.22-1.046-9.976-2.588c-2.753-1.565-4.109-3.556-3.992-6.014c0.221-1.081,0.717-2.081,1.528-3.021
	c0.811-0.938,1.85-1.682,3.153-2.227c1.27-0.57,2.756-0.829,4.428-0.823c1.381,0.063,2.665,0.376,3.853,0.918
	c1.15,0.563,2.071,1.278,2.725,2.168c0.618,0.887,0.908,1.854,0.8,2.87c-0.144,1.365-0.974,2.489-2.49,3.374
	c-1.517,0.884-3.374,1.288-5.535,1.19l-0.814-0.037c1.235,1.45,3.426,2.269,6.578,2.411c1.594,0.072,3.248-0.085,4.921-0.427
	c1.71-0.365,3.153-0.881,4.399-1.568c1.247-0.687,2.109-1.438,2.515-2.256c0.703-0.922,1.125-2.228,1.297-3.869
	c0.117-1.109,0.057-2.228-0.145-3.353c-0.204-1.101-0.546-2.58-1.029-4.415c-0.485-1.811-0.834-3.222-1.018-4.182
	c-2.161,0.251-4.376,0.337-6.679,0.232c-3.86-0.174-7.455-0.848-10.78-2.044c-3.326-1.195-6.185-2.766-8.611-4.733
	c-2.391-1.968-4.189-4.14-5.393-6.564c-1.17-2.398-1.656-4.885-1.423-7.431c0.39-2.352,1.302-4.588,2.801-6.658
	c1.502-2.093,3.345-4.055,5.564-5.859c2.218-1.805,4.491-3.445,6.815-4.897C22.307,60.74,25.383,58.904,29.246,56.686z"/>
<path id="path4032_1_" fill="none" stroke="#BBBBBB" stroke-width="3" stroke-linecap="round" d="M430.5,47.673v55.829"/>
<path id="path4032_2_" fill="none" stroke="#BBBBBB" stroke-width="3" stroke-linecap="round" d="M1004,47.173v55.829"/>
<path id="path4032_3_" fill="none" stroke="#BBBBBB" stroke-width="3" stroke-linecap="round" d="M1289.221,47.941v55.829"/>
<path id="path4032_4_" fill="none" stroke="#BBBBBB" stroke-width="3" stroke-linecap="round" d="M1580.5,47.941v55.829"/>
<path id="path4032_10_" fill="none" stroke="#BBBBBB" stroke-width="3" stroke-linecap="round" d="M2025.5,103.022"/>
<path id="path4032_9_" fill="none" stroke="#BBBBBB" stroke-width="3" stroke-linecap="round" d="M2025.5,47.193"/>
<path id="path4032_6_" fill="none" stroke="#BBBBBB" stroke-width="3" stroke-linecap="round" d="M716,47.673v55.829"/>
</svg>
