<?xml version="1.0" encoding="utf-8"?>
<!-- Generator: Adobe Illustrator 16.0.0, SVG Export Plug-In . SVG Version: 6.00 Build 0)  -->
<!DOCTYPE svg PUBLIC "-//W3C//DTD SVG 1.1//EN" "http://www.w3.org/Graphics/SVG/1.1/DTD/svg11.dtd">
<svg version="1.1" id="svg2" xmlns:svg="http://www.w3.org/2000/svg"
	 xmlns="http://www.w3.org/2000/svg" xmlns:xlink="http://www.w3.org/1999/xlink" x="0px" y="0px" width="950px" height="620px"
	 viewBox="0 0 950 620" enable-background="new 0 0 950 620" xml:space="preserve">
<g>
	<g>
		<g>
			<path fill="none" stroke="#ffd85f" stroke-width="2" stroke-miterlimit="10" d="M458.25,212c0.154,0.065,0.307,0.132,0.458,0.199
				"/>
			<path fill="none" stroke="#ffd85f" stroke-width="2" stroke-miterlimit="10" stroke-dasharray="0.9994,0.9994" d="
				M459.616,212.62c3.958,1.923,7.086,4.656,7.384,9.324c0.318,4.978-1.981,7.787-6.361,9.493
				c-9.341,3.638-19.391,1.33-29.364,0.868c-24.025-1.112-47.193,1.958-68.158,11.744c-5.365,2.504-10.948,4.432-16.561,7.096
				c-3.133,1.487-6.128,3.44-9.55,4.599c-3.372,1.142-6.778,2.168-10.042,3.513c-6.693,2.758-13.458,4.574-20.714,5.493
				c-6.247,0.792-14.772,1.602-21.031,0.407c-0.879-0.167-1.485-0.837-2.788-0.906c-1.283-0.068-2.667,0.295-3.931,0.506
				c-2.502,0.417-5.04,0.796-7.506,1.242c-3.872,0.7-8.076,0.208-11.938,0.995c-5.269,1.075-10.907,2.907-15.466,5.719"/>
			<path fill="none" stroke="#ffd85f" stroke-width="2" stroke-miterlimit="10" d="M243.169,272.978
				c-0.141,0.09-0.28,0.181-0.418,0.272"/>
		</g>
	</g>
</g>
</svg>
